<?xml version="1.0" standalone="no"?>
<!DOCTYPE svg PUBLIC "-//W3C//DTD SVG 20010904//EN"
 "http://www.w3.org/TR/2001/REC-SVG-20010904/DTD/svg10.dtd">
<svg version="1.0" xmlns="http://www.w3.org/2000/svg"
 width="1280.000000pt" height="876.000000pt" viewBox="0 0 1280.000000 876.000000"
 preserveAspectRatio="xMidYMid meet">
<g transform="translate(0.000000,876.000000) scale(0.100000,-0.100000)"
fill="#000000" stroke="none">
<path d="M6100 8749 c-47 -4 -169 -12 -272 -19 -1275 -77 -2552 -453 -3683
-1083 -683 -381 -1334 -868 -1860 -1392 -157 -156 -202 -222 -239 -350 -59
-200 -59 -213 -9 -405 47 -178 183 -345 354 -435 192 -100 447 -102 642 -3 81
40 120 71 252 198 1290 1240 2901 1949 4680 2060 206 13 664 13 870 0 1659
-103 3192 -736 4425 -1825 63 -56 171 -156 240 -221 149 -143 185 -172 267
-212 195 -99 450 -97 642 3 171 90 307 257 354 435 50 192 50 205 -9 405 -37
128 -82 194 -239 350 -526 524 -1177 1011 -1860 1392 -1128 629 -2406 1005
-3675 1083 -96 6 -227 15 -292 20 -133 11 -463 11 -588 -1z"/>
<path d="M6160 6214 c-1279 -59 -2411 -428 -3435 -1122 -340 -230 -758 -577
-973 -807 -128 -137 -192 -299 -192 -485 0 -130 18 -210 72 -320 34 -69 59
-102 133 -175 146 -147 292 -209 490 -210 225 0 354 59 560 255 677 647 1465
1083 2347 1299 816 201 1660 201 2476 0 882 -216 1670 -652 2347 -1299 206
-196 335 -255 560 -255 198 1 344 63 490 210 146 145 205 287 205 495 0 186
-64 348 -192 485 -145 155 -464 434 -703 614 -920 695 -1997 1130 -3145 1271
-271 33 -797 55 -1040 44z"/>
<path d="M6100 3619 c-358 -30 -668 -93 -982 -199 -567 -191 -1090 -512 -1494
-915 -153 -153 -190 -209 -235 -355 -30 -97 -33 -271 -6 -369 58 -207 197
-371 389 -460 114 -53 174 -66 303 -64 201 2 332 58 511 221 342 311 615 477
994 602 279 93 518 131 820 131 302 0 541 -38 820 -131 379 -125 652 -291 994
-602 179 -163 310 -219 511 -221 129 -2 189 11 303 64 192 89 331 253 389 460
27 98 24 272 -6 369 -45 146 -82 202 -235 355 -719 717 -1748 1131 -2796 1124
-102 -1 -228 -5 -280 -10z"/>
<path d="M6270 1164 c-200 -42 -377 -208 -436 -409 -24 -81 -24 -239 0 -320
45 -153 161 -293 296 -358 82 -40 210 -77 263 -77 52 0 195 38 262 70 289 138
406 491 262 790 -45 95 -161 209 -258 255 -130 62 -257 78 -389 49z"/>
</g>
</svg>
